<svg id="Layer_1" data-name="Layer 1" xmlns="http://www.w3.org/2000/svg" viewBox="0 0 256 149.49"><defs><style>.cls-1{fill:#333;}</style></defs><path class="cls-1" d="M48.14,162.88c-3.62,6-7.1,11.65-10.51,17.37a63.49,63.49,0,0,0-4.43,8c-2.65,6.42,2.48,13.47,9,14,2.62.21,5.25.47,7.88.47q59.31,0,118.63,0c6.39,0,12.65-1,16.83-6.57a77.29,77.29,0,0,0,5.66-9.5q8-14.56,16-29.2c5.23-9.66,10.36-19.39,15.61-29,6.16-11.34,12.39-22.63,18.6-33.93,4.16-7.59,8.27-15.2,12.51-22.75,4.86-8.65.55-15.56-6.08-17.7a18.67,18.67,0,0,0-5.64-.72q-56.56-.06-113.14,0c-8,0-13.87,3.51-17.59,10.86-1.81,3.59-4.57,6.7-6.83,10.07C99.17,82.35,93.8,90.56,88.29,98.68c-3.43,5.07-7,10.09-10.62,15-.59.77-2.21,1.08-3.35,1.08-22.88.07-45.77,0-68.65.06-5,0-6.67,2.38-5.11,7.07.49,1.46.8,3,1.41,4.38a66,66,0,0,0,13.46,20.57,55,55,0,0,0,28.51,15.26C45.18,162.34,46.42,162.56,48.14,162.88Zm39-48.08c2-3.3,3.76-6.41,5.76-9.35,5.67-8.36,11.45-16.64,17.17-25,3.31-4.82,6.58-9.68,9.87-14.52,1.67-2.45,3.65-3.95,6.94-3.94q58.49.12,117,0c4,0,4.93,1.49,3,5.08C242.65,75.09,238.32,83,234,90.91c-3.61,6.65-7.25,13.29-10.84,20-4.11,7.61-8,15.33-12.32,22.84-3.39,5.91-6,12.23-13.69,14.8-11.63,3.89-21,2.45-29.19-5.93-6.08-6.22-10.07-13.87-12.84-22.11-1.31-3.9-1.49-5.65-7.82-5.66q-25.12,0-50.25,0Zm83.17,40.63h-3l-93-.52c-7,0-14.09,0-21.14,0a20.85,20.85,0,0,1-2.74-.08C37.3,153,26,147.74,17.81,137c-3-4-5.44-8.53-8.4-13.24,1.41-.07,1.87-.11,2.32-.11q66.72,0,133.42-.05c1.93,0,2.72.74,3.3,2.42a48.19,48.19,0,0,0,2.54,6C155.6,141.23,161.59,149.37,170.34,155.43Zm23.94,8.12c-.87,1.82-1.39,3.06-2,4.23-3.78,6.86-7.64,13.68-11.36,20.58-2,3.66-4.62,5.63-9.06,5.62q-63.42-.15-126.85-.06c-.55,0-1.1,0-1.65,0-2.2-.18-3.22-1.94-2.1-3.84,2.24-3.81,4.59-7.56,6.88-11.34,3.07-5.07,6.12-10.15,9.15-15.18Z" transform="translate(0 -53.26)"/></svg>